<svg width="204" height="231" viewBox="0 0 204 231" fill="none" xmlns="http://www.w3.org/2000/svg">
<path fill-rule="evenodd" clip-rule="evenodd" d="M18.5723 207.615L0.0888672 0.344727H203.151L184.645 207.581L101.494 230.627L18.5723 207.615ZM101.625 92.3774H135.25L137.566 66.3496H101.717V66.3608H40.3276L39.8003 60.6509L38.6426 47.7632L38.0347 40.9409H101.609H101.717H165.36L164.752 47.7632L158.603 116.7H158.613L154.188 166.118L153.809 170.418L101.823 184.83V184.892H101.674L49.5957 170.399L46.0298 130.486H71.5303L73.3418 150.758L101.651 158.405H101.696V158.378L130.052 150.731L133.014 117.82H101.609V117.797H73.6367L73.1436 112.087L71.9854 99.1997L71.3779 92.3774H101.609H101.613H101.625Z" fill="white"/>
</svg>
